<svg width="18" height="20" viewBox="0 0 18 20" fill="none" xmlns="http://www.w3.org/2000/svg">
    <path d="M12.086 0H4.053a2.132 2.132 0 0 0-2.129 2.129V10h-.208a.858.858 0 0 0-.857.858v5.202c0 .474.384.858.857.858h.208v.953A2.13 2.13 0 0 0 4.053 20h10.96a2.131 2.131 0 0 0 2.128-2.129V5.038L12.086 0zM3.109 11.796a6.732 6.732 0 0 1 1.102-.074c.504 0 .862.096 1.103.289.23.182.385.482.385.835s-.117.653-.331.856c-.279.262-.69.38-1.173.38-.107 0-.203-.005-.278-.016v1.29h-.808v-3.56zm11.904 6.9H4.053a.826.826 0 0 1-.824-.825v-.953h10.217a.858.858 0 0 0 .858-.858v-5.202a.858.858 0 0 0-.858-.858H3.229V2.129c0-.454.37-.824.824-.824l7.545-.008v2.789c0 .815.661 1.476 1.476 1.476l2.732-.008.031 12.317c0 .455-.37.825-.824.825zM6.221 15.34v-3.543c.3-.048.69-.075 1.102-.075.685 0 1.13.123 1.478.385.374.279.61.723.61 1.36 0 .69-.252 1.167-.6 1.461-.38.316-.958.465-1.664.465-.423 0-.723-.026-.926-.053zm5.841-2.098v.664h-1.295v1.45h-.819V11.75h2.205v.669h-1.386v.824h1.295z" fill="#fff" stroke="#fff"/>
</svg>
